<?xml version="1.0" encoding="UTF-8"?>
<svg id="Layer_2" data-name="Layer 2" xmlns="http://www.w3.org/2000/svg" viewBox="0 0 394.29 184.42">
  <defs>
    <style>
      .cls-1 {
        fill: #f0c;
      }

      .cls-2 {
        fill: #eefdf9;
      }
    </style>
  </defs>
  <path class="cls-1" d="M246.24,83.34h0c0-5.12,4.15-9.27,9.27-9.27-5.12,0-9.27-4.15-9.27-9.27h0c0,5.12-4.15,9.27-9.27,9.27,5.12,0,9.27,4.15,9.27,9.27Z"/>
  <g>
    <path class="cls-2" d="M145.53,71.57v6.05c0,.82-.45,1.27-1.34,1.27h-7.09v42.32c0,.9-.45,1.34-1.27,1.34h-6.72c-.82,0-1.27-.45-1.27-1.34v-42.32h-7.17c-.82,0-1.27-.45-1.27-1.27v-6.05c0-.82.45-1.27,1.27-1.27h23.51c.9,0,1.34.45,1.34,1.27Z"/>
    <path class="cls-2" d="M144.04,110.76v-13.81c0-7.46,5-12.62,12.46-12.62s12.47,5.15,12.47,12.62v13.81c0,7.54-5,12.69-12.47,12.69s-12.46-5.15-12.46-12.69ZM160.09,111.28v-14.78c0-2.31-1.34-3.88-3.58-3.88s-3.58,1.57-3.58,3.88v14.78c0,2.31,1.34,3.81,3.58,3.81s3.58-1.49,3.58-3.81Z"/>
    <path class="cls-2" d="M198.91,111.81v9.41c0,.9-.45,1.34-1.27,1.34h-6.27c-.82,0-1.27-.45-1.27-1.34v-9.93c0-2.24-1.42-3.66-3.58-3.66h-2.99v13.59c0,.9-.45,1.34-1.34,1.34h-6.12c-.9,0-1.34-.45-1.34-1.34v-49.64c0-.82.45-1.27,1.34-1.27h6.12c.9,0,1.34.45,1.34,1.27v27.77h1.94l5.08-13.06c.22-.75.75-1.04,1.49-1.04h6.34c.97,0,1.49.6,1.12,1.49l-5.97,14.71c3.36,2.02,5.37,5.67,5.37,10.38Z"/>
    <path class="cls-2" d="M203.54,110.76v-24.26c0-.82.45-1.27,1.27-1.27h6.2c.82,0,1.27.45,1.27,1.27v24.78c0,2.31,1.27,3.81,3.43,3.81s3.36-1.49,3.36-3.81v-24.78c0-.82.52-1.27,1.34-1.27h6.2c.82,0,1.27.45,1.27,1.27v34.71c0,.9-.45,1.34-1.27,1.34h-2.76c-.75,0-1.27-.3-1.57-1.04l-.37-1.42c-1.72,2.01-4.11,3.36-6.79,3.36-6.94,0-11.57-5.15-11.57-12.69Z"/>
    <path class="cls-2" d="M234.07,110.76v-24.26c0-.82.45-1.27,1.27-1.27h6.2c.82,0,1.27.45,1.27,1.27v24.78c0,2.31,1.27,3.81,3.43,3.81s3.36-1.49,3.36-3.81v-24.78c0-.82.52-1.27,1.34-1.27h6.2c.82,0,1.27.45,1.27,1.27v34.71c0,.9-.45,1.34-1.27,1.34h-2.76c-.75,0-1.27-.3-1.57-1.04l-.37-1.42c-1.72,2.01-4.11,3.36-6.79,3.36-6.94,0-11.57-5.15-11.57-12.69Z"/>
    <path class="cls-2" d="M264.08,110.76v-13.81c0-7.46,5-12.62,12.47-12.62s12.47,5.15,12.47,12.62v13.81c0,7.54-5,12.69-12.47,12.69s-12.47-5.15-12.47-12.69ZM280.13,111.28v-14.78c0-2.31-1.34-3.88-3.58-3.88s-3.58,1.57-3.58,3.88v14.78c0,2.31,1.34,3.81,3.58,3.81s3.58-1.49,3.58-3.81Z"/>
    <path class="cls-2" d="M292.38,112.25c0-12.39,15.97-11.27,15.97-16.72,0-1.87-1.19-2.91-3.21-2.91-1.87,0-2.99,1.04-3.28,2.76-.15.82-.6,1.27-1.34,1.27h-6.2c-.82,0-1.27-.45-1.27-1.34.52-6.57,4.93-10.97,11.94-10.97,7.61,0,12.17,4.4,12.17,10.67,0,12.39-15.9,11.12-15.9,16.72,0,2.09,1.34,3.36,3.58,3.36s3.58-1.42,3.88-3.88c.22-.75.67-1.2,1.42-1.2h6.2c.82,0,1.34.52,1.27,1.42-.52,7.24-5.23,12.02-12.84,12.02s-12.39-4.55-12.39-11.2Z"/>
    <path class="cls-2" d="M321.49,110.91c0-6.57,4.93-11.27,12.17-11.27h3.73v-3.21c0-2.24-1.2-3.73-3.36-3.73s-3.21,1.42-3.29,3.28c-.07.75-.52.97-1.34.97h-6.12c-.82,0-1.27-.52-1.27-1.34.6-6.72,5.22-11.27,12.09-11.27,7.32,0,12.09,5.15,12.09,12.62v14.33c0,7.24-4.4,12.09-11.94,12.09s-12.76-5.08-12.76-12.47ZM337.39,111.36v-4.03h-3.21c-2.46,0-3.81,1.42-3.81,3.58,0,2.54,1.34,4.11,3.73,4.11,2.17,0,3.29-1.42,3.29-3.66Z"/>
  </g>
  <path class="cls-1" d="M106.63,101.47c-2.31-4.33-5.66-5.9-9.47-6.24.02-.42.03-.84.03-1.28,0-4.67-1.36-9.04-3.71-12.71-4.2-6.58-11.57-10.95-19.95-10.95-3.68,0-7.16.84-10.26,2.34-.06.02-.12.06-.17.09-.17.08-.33.17-.49.26-2.54,1.39-4.74,3.11-6.59,5.06l-.02.02c-10.35,10.95-9.75,29.25,3.4,38.76,6.16,4.45,12.45,5.88,12.45,5.88,13.48,2.61,34.19-1.42,35.85-15.76.22-1.88-.17-3.8-1.07-5.47ZM75.86,96.72c-6.55-1.2-9.18-9.17-4.76-14.15,3.2-3.61,7.3-4.99,12.24-4.46,3.09.34,5.9,2.08,7.58,4.7,0,.01.02.03.03.04,2.11,3.32,3.23,7.16,3.23,11.1,0,.38-.01.75-.03,1.12,0,.04,0,.09-.01.13-6.03.3-12.78,2.52-18.29,1.51ZM92.74,118.27c0-5.88-4.77-10.65-10.65-10.65,5.88,0,10.65-4.77,10.65-10.65,0,5.88,4.77,10.65,10.65,10.65-5.88,0-10.65,4.77-10.65,10.65Z"/>
</svg>